:SAMPLES-PER-SECOND 30
:FULLY-SPECIFIED
:DEGREES
422
root  85.012 38.8842 -5.17813 -149.44 -83.8812 148.779
RightUpLeg  -1.18454 -8.77644 -6.1923
RightLeg  11.6003 2.70651 0.188474
RightFoot  -11.8885 -0.0696111 0.9633
RightToes  -4.65661e-009 0 -3.6325e-017
Spine  3.61118 0.736056 5.59246
Spine1  5.4491 2.03106 -4.90846
HEad  -1.96206 -4.96179 -7.30874
LeftShoulder1  -0.631269 5.17937 -31.5217
LeftArm  -1.9007 14.8744 -43.7013
LeftForeArm  27.0729 -18.1942 -4.7143
LeftHand  -0.0355723 6.45911 0.0304715
RightShoulder  -0.646548 -5.41372 27.1481
RightArm  26.9882 1.67974 47.771
RightForeArm  1.22123 20.5906 5.19183
RightHand  -0.321526 6.14669 -3.56544
LeftUpLeg  1.23265 7.68057 2.2797
LeftLeg  10.4601 8.11034 1.60762
LeftFoot  -9.44054 0.102429 -2.80171
LeftToes  9.86798e-010 -1.28139e-010 1.4132e-011
423
root  85.3901 38.9931 -5.14158 -140.763 -85.0576 140.602
RightUpLeg  -1.68714 -8.75609 -5.98302
RightLeg  10.6175 1.12415 -0.0139585
RightFoot  -10.6775 -0.0781011 1.0111
RightToes  -4.65661e-009 0 -3.6325e-017
Spine  2.94666 0.576045 3.78756
Spine1  5.54298 1.40797 -3.52477
HEad  -1.22557 -5.39488 -6.54463
LeftShoulder1  -0.594226 5.08927 -31.3331
LeftArm  -3.93099 14.6976 -44.5882
LeftForeArm  28.7599 -16.7016 -5.05691
LeftHand  -0.0349492 6.32863 0.0498224
RightShoulder  -0.571303 -5.20971 26.7356
RightArm  25.055 5.37612 48.5649
RightForeArm  2.0894 23.0132 4.86275
RightHand  -0.286479 4.90569 -3.52055
LeftUpLeg  1.99422 5.9761 1.68944
LeftLeg  6.64486 7.46916 1.52874
LeftFoot  -8.21503 0.117191 -2.52528
LeftToes  9.86798e-010 -1.28139e-010 1.4132e-011
424
root  85.7466 39.0876 -5.0675 -129.385 -85.2463 129.363
RightUpLeg  -2.09656 -8.96106 -6.54496
RightLeg  10.0259 0.439131 -0.104859
RightFoot  -9.71078 -0.0792806 0.913428
RightToes  -4.65661e-009 0 -3.6325e-017
Spine  3.27217 0.602638 2.36059
Spine1  4.85684 1.32252 -3.48231
HEad  -0.073709 -6.57737 -5.09636
LeftShoulder1  -0.547785 4.96262 -31.3979
LeftArm  -3.75882 14.2429 -44.3375
LeftForeArm  29.8298 -16.1613 -5.27764
LeftHand  -0.0415748 6.05258 -1.40617
RightShoulder  -0.52753 -5.10467 26.1639
RightArm  22.5406 11.1782 49.8783
RightForeArm  3.9641 24.6689 5.06517
RightHand  -0.348329 5.96763 -3.88688
LeftUpLeg  2.57347 6.54986 1.32942
LeftLeg  3.44314 6.46153 0.457659
LeftFoot  -5.65359 0.148489 -2.28322
LeftToes  9.86798e-010 -1.28139e-010 1.4132e-011
425
root  86.133 39.1514 -4.95468 -121.822 -85.4097 122.119
RightUpLeg  -2.84215 -9.04877 -6.73864
RightLeg  9.61319 -0.0805803 -0.192933
RightFoot  -8.86654 -0.0868841 1.24639
RightToes  -4.65661e-009 0 -3.6325e-017
Spine  3.81678 0.660829 2.65656
Spine1  4.03233 1.61574 -4.53087
HEad  0.625705 -7.80097 -3.54528
LeftShoulder1  -0.442281 4.69397 -31.0128
LeftArm  -2.77796 13.8411 -43.8012
LeftForeArm  29.5908 -16.1824 -5.42047
LeftHand  -0.0269001 5.15073 -1.79444
RightShoulder  -0.439278 -4.87869 25.0199
RightArm  20.6406 18.8489 51.752
RightForeArm  5.73498 25.4493 5.15739
RightHand  -0.344828 6.05806 -3.83055
LeftUpLeg  2.43489 6.35845 0.949981
LeftLeg  1.47834 6.06617 0.0760895
LeftFoot  -4.19602 0.168326 -2.30422
LeftToes  9.86798e-010 -1.28139e-010 1.4132e-011
426
root  86.5372 39.1891 -4.76613 -108.501 -85.7161 109.175
RightUpLeg  -3.50458 -10.0023 -7.26665
RightLeg  9.1357 -0.226464 0.116195
RightFoot  -8.11989 -0.0926254 1.3342
RightToes  -4.65661e-009 0 -3.6325e-017
Spine  4.52165 0.827243 3.50237
Spine1  3.07895 2.03487 -5.59172
HEad  1.45545 -9.83417 -2.62243
LeftShoulder1  -0.377153 4.52974 -30.6306
LeftArm  -2.97772 12.7506 -43.8479
LeftForeArm  29.8638 -16.0106 -5.45705
LeftHand  -0.038847 5.65576 -1.95378
RightShoulder  -0.271413 -4.39122 23.3514
RightArm  17.347 27.3357 52.4647
RightForeArm  6.95832 25.9115 5.19394
RightHand  -0.356076 5.22715 -4.19635
LeftUpLeg  1.19845 5.69741 0.230279
LeftLeg  1.3623 5.84369 0.209726
LeftFoot  -3.22034 0.141872 -1.7208
LeftToes  9.86798e-010 -1.28139e-010 1.4132e-011
427
root  86.9224 39.1906 -4.60175 -100.972 -86.1719 101.743
RightUpLeg  -3.93683 -10.0735 -7.17225
RightLeg  8.7454 -0.746357 0.158545
RightFoot  -7.45437 -0.101387 1.49302
RightToes  -4.65661e-009 0 -3.6325e-017
Spine  5.57155 1.17927 5.30605
Spine1  2.24706 2.7577 -7.16341
HEad  2.0442 -12.3421 -1.98918
LeftShoulder1  -0.356643 4.47348 -30.6306
LeftArm  -1.13133 11.865 -43.5965
LeftForeArm  28.9738 -17.3307 -5.13626
LeftHand  -0.0439826 6.792 -1.20705
RightShoulder  -0.129697 -3.94267 21.4994
RightArm  14.7734 36.9088 52.2577
RightForeArm  6.48616 24.6693 4.9485
RightHand  -0.468501 6.4362 -4.90747
LeftUpLeg  -0.28109 5.82281 0.381242
LeftLeg  2.65335 4.99188 -0.0099081
LeftFoot  -3.06832 0.0991716 -1.11333
LeftToes  9.86798e-010 -1.28139e-010 1.4132e-011
428
root  87.2444 39.1928 -4.44874 -100.591 -86.3938 101.215
RightUpLeg  -4.19163 -10.0291 -7.11053
RightLeg  8.48324 -0.853979 0.181277
RightFoot  -6.72842 -0.110083 1.60203
RightToes  -4.65661e-009 0 -3.6325e-017
Spine  7.15674 1.69345 7.49176
Spine1  0.749847 3.77694 -9.3591
HEad  3.23148 -14.2381 -1.0744
LeftShoulder1  -0.252781 4.1971 -30.3299
LeftArm  1.10952 12.0095 -42.8884
LeftForeArm  25.0602 -19.4033 -4.54858
LeftHand  -0.0474693 8.76888 -0.166562
RightShoulder  0.00196087 -3.46954 19.4562
RightArm  11.1117 45.8026 51.2867
RightForeArm  6.04459 21.3793 4.42828
RightHand  -0.601645 7.84303 -5.61968
LeftUpLeg  -0.937423 5.96004 0.480755
LeftLeg  3.14753 4.81802 -0.228006
LeftFoot  -2.7756 0.0530992 -0.492725
LeftToes  9.86798e-010 -1.28139e-010 1.4132e-011
429
root  87.5259 39.2133 -4.30054 -83.0267 -86.5113 83.5788
RightUpLeg  -4.15889 -10.424 -7.35939
RightLeg  8.01124 -1.58516 0.30854
RightFoot  -5.89522 -0.103584 1.34171
RightToes  -4.65661e-009 0 -3.6325e-017
Spine  8.01038 1.87939 9.36761
Spine1  0.0638069 4.42956 -11.343
HEad  4.18647 -16.6529 -0.0918394
LeftShoulder1  -0.176239 3.99065 -30.0643
LeftArm  1.60089 11.6202 -42.2401
LeftForeArm  24.2156 -20.8674 -4.10483
LeftHand  -0.0318596 6.02234 -0.509499
RightShoulder  0.126939 -2.94933 17.1842
RightArm  4.68047 53.2783 48.6223
RightForeArm  9.38161 17.0001 3.88308
RightHand  -0.43959 6.16149 -4.76995
LeftUpLeg  -1.53378 5.5367 0.149946
LeftLeg  3.16519 4.0966 -0.116152
LeftFoot  -2.05182 -0.00924329 0.268331
LeftToes  9.86798e-010 -1.28139e-010 1.4132e-011
430
root  87.7358 39.2389 -4.19559 -65.9722 -86.4027 66.5018
RightUpLeg  -4.00792 -10.3695 -7.37311
RightLeg  7.4236 -2.63568 0.256218
RightFoot  -5.15313 -0.0936399 1.07707
RightToes  -4.65661e-009 0 -3.6325e-017
Spine  9.23005 1.95123 11.1245
Spine1  -1.57919 4.89038 -13.4381
HEad  5.60289 -18.8922 0.822692
LeftShoulder1  -0.0622462 3.67684 -29.8408
LeftArm  2.86231 12.0868 -40.9878
LeftForeArm  21.7932 -22.6965 -3.85894
LeftHand  -0.00153028 7.73235 2.01433
RightShoulder  0.191855 -2.62903 15.5243
RightArm  -0.763245 58.9503 44.418
RightForeArm  9.56091 12.7652 3.38986
RightHand  -0.414287 5.13846 -4.77466
LeftUpLeg  -1.97923 5.59059 0.165232
LeftLeg  3.15336 3.1038 -0.363059
LeftFoot  -1.53501 -0.0426955 0.608525
LeftToes  9.86798e-010 -1.28139e-010 1.4132e-011
431
root  87.8969 39.2616 -4.10939 -52.553 -85.9014 53.0204
RightUpLeg  -3.79476 -10.3165 -7.47429
RightLeg  6.9543 -3.65466 0.154769
RightFoot  -4.59702 -0.110924 1.35386
RightToes  -4.65661e-009 0 -3.6325e-017
Spine  9.88378 2.03242 12.2426
Spine1  -2.36746 5.2559 -14.9324
HEad  6.67137 -20.907 1.46893
LeftShoulder1  -0.0101588 3.53247 -29.4413
LeftArm  1.6133 12.1664 -40.1709
LeftForeArm  21.9071 -23.412 -3.92108
LeftHand  -0.00644724 6.88215 2.20042
RightShoulder  0.211736 -2.44331 13.6864
RightArm  -6.63517 63.4661 40.2981
RightForeArm  11.5579 8.63473 2.26868
RightHand  -0.172574 3.1838 -2.63681
LeftUpLeg  -2.10478 5.36813 -0.0281201
LeftLeg  2.69823 2.30241 -0.308208
LeftFoot  -0.959052 -0.0503014 0.615702
LeftToes  9.86798e-010 -1.28139e-010 1.4132e-011
432
root  88.0338 39.2789 -4.02712 -38.046 -84.7818 38.4422
RightUpLeg  -3.45784 -10.6266 -7.79665
RightLeg  6.6338 -4.84176 0.235447
RightFoot  -4.1807 -0.119482 1.45606
RightToes  -4.65661e-009 0 -3.6325e-017
Spine  10.0473 1.93391 12.3945
Spine1  -2.50594 5.20801 -15.1984
HEad  6.815 -22.4168 2.276
LeftShoulder1  -0.0102805 3.53279 -29.1703
LeftArm  1.50671 12.5691 -39.4951
LeftForeArm  22.3514 -25.0655 -4.17835
LeftHand  0.00157348 7.01553 2.35258
RightShoulder  0.331678 -1.72865 11.6254
RightArm  -11.7082 65.4113 33.9595
RightForeArm  10.0594 6.81765 1.85485
RightHand  -0.222815 2.49866 -3.47545
LeftUpLeg  -2.09207 5.28099 -0.206741
LeftLeg  1.97701 0.920019 -0.482602
LeftFoot  -0.454299 -0.0614734 0.676154
LeftToes  9.86798e-010 -1.28139e-010 1.4132e-011
433
root  88.1326 39.2841 -3.94466 -31.3998 -83.768 31.8565
RightUpLeg  -3.44498 -11.0509 -8.13575
RightLeg  6.65792 -5.65048 0.380603
RightFoot  -3.91323 -0.12174 1.46625
RightToes  -4.65661e-009 0 -3.6325e-017
Spine  9.76773 1.79119 12.6006
Spine1  -2.39562 5.11963 -15.5799
HEad  6.84662 -23.335 2.81774
LeftShoulder1  -0.0408603 3.61858 -29.4982
LeftArm  1.50152 12.4971 -38.409
LeftForeArm  22.0058 -25.4333 -4.28235
LeftHand  0.0422858 8.34694 3.24094
RightShoulder  0.260152 -2.07811 11.2976
RightArm  -14.6716 67.8839 29.0075
RightForeArm  10.8522 5.55847 2.0348
RightHand  -0.195506 2.76118 -3.00414
LeftUpLeg  -2.2373 4.93884 -0.567793
LeftLeg  1.52478 0.104487 -0.321353
LeftFoot  -0.163385 -0.041094 0.42789
LeftToes  9.86798e-010 -1.28139e-010 1.4132e-011
